<svg id="Layer_1" xmlns="http://www.w3.org/2000/svg" viewBox="0 0 144 144">
  <style>
    .st0{fill:#FFFFFF;} .st1{fill:#F37D21;}
  </style>
  <g id="Orange_x5F_smile_x5F_text">
    <path id="white_x5F_bckground_1_" class="st0" d="M5 30h132v106H5z"/>
    <g id="head_3_">
      <path id="white_x5F_teeth" class="st0" d="M7 119h130v19H7z"/>
      <path id="head" class="st1" d="M136 99.3C124.1 86.6 100.1 78 72.5 78c-28.4 0-53 9.2-64.5 22.4-4.5 5.2-7 11-7 17.1 0 .6 0 1.2.1 1.7.7 9.5 7.6 18.2 18.4 24.8h106.1c11.2-6.9 18.1-15.9 18.5-25.8v-.7c-.1-6.5-3-12.7-8.1-18.2zm0 28.7c0 4.4-3.6 8-8 8H16c-4.4 0-8-3.6-8-8v-6.7c45.3 13 81 11.5 128-.9v7.6z"/>
    </g>
    <g id="r_x5F_eye">
      <circle class="st0" cx="102.6" cy="90.7" r="19.6"/>
      <path class="st1" d="M122.3 76.5V57.6c0-11.1-9-20.1-20.1-20.1-11.1 0-20.1 9-20.1 20.1v2.8h8.1v-2.8c0-6.7 5.4-12.1 12.1-12.1 6.7 0 12.1 5.4 12.1 12.1v11c-3.5-2.1-7.7-3.3-12.1-3.3C89 65.3 78.4 75.9 78.4 89s10.6 23.7 23.7 23.7 23.7-10.6 23.7-23.7c.1-4.6-1.2-8.9-3.5-12.5zm-20.2 28.2c-8.6 0-15.7-7-15.7-15.7s7-15.7 15.7-15.7 15.7 7 15.7 15.7-7 15.7-15.7 15.7z"/>
      <path class="st1" d="M108.8 89.1c0 3.7-3 6.6-6.6 6.6-3.7 0-6.6-3-6.6-6.6 0-3.7 3-6.7 6.6-6.7 3.7 0 6.6 3 6.6 6.7z"/>
    </g>
    <g id="l_x5F_eye">
      <circle class="st0" cx="46.6" cy="90.7" r="19.6"/>
      <path class="st1" d="M66.6 76.8v-19c0-11.1-9-20.1-20.1-20.1-11.1 0-20.1 9-20.1 20.1v18.8c-2.3 3.6-3.7 8-3.7 12.6 0 13.1 10.7 23.7 23.7 23.7 13.1 0 23.7-10.7 23.7-23.7.1-4.5-1.2-8.8-3.5-12.4zm-32.1-19c0-6.6 5.4-12.1 12.1-12.1 6.6 0 12.1 5.4 12.1 12.1v11c-3.5-2.1-7.7-3.3-12.1-3.3-4.4 0-8.5 1.2-12 3.3v-11zm12 47.1c-8.6 0-15.7-7-15.7-15.7 0-8.6 7-15.7 15.7-15.7 8.6 0 15.7 7 15.7 15.7-.1 8.7-7.1 15.7-15.7 15.7z"/>
      <circle class="st1" cx="46.6" cy="89.3" r="6.6"/>
    </g>
    <path id="Frame" class="st1" d="M128 0H16C10.6 0 5.7 2.7 2.7 7.2.9 9.8 0 12.8 0 16v112c0 8.8 7.2 16 16 16h112c8.8 0 16-7.2 16-16V16c0-8.8-7.2-16-16-16zm8 128c0 4.4-3.6 8-8 8H16c-4.4 0-8-3.6-8-8V33h128v95z"/>
    <g id="text">
      <path class="st0" d="M52.1 15.7c0 6-3.6 9.6-8.9 9.6-5.4 0-8.6-4.1-8.6-9.3 0-5.5 3.5-9.5 8.9-9.5 5.5 0 8.6 4.2 8.6 9.2zm-13.2.3c0 3.6 1.7 6.1 4.4 6.1 2.8 0 4.4-2.6 4.4-6.2 0-3.3-1.6-6.1-4.4-6.1-2.8 0-4.4 2.6-4.4 6.2zM58.6 20.4L57.3 25H53l5.6-18.2H64L69.6 25h-4.4l-1.4-4.7h-5.2zm4.6-3.1L62 13.4c-.3-1.1-.6-2.4-.9-3.5H61c-.3 1.1-.5 2.5-.8 3.5l-1.1 3.9h4.1zM72.1 25c.1-.9.1-2.2.1-3.4V5.9h2.3v8.2h.1c.8-1.5 2.3-2.4 4.5-2.4 3.2 0 5.5 2.7 5.5 6.7 0 4.7-2.9 7-5.9 7-1.9 0-3.4-.7-4.4-2.5h-.1V25h-2.1zm2.5-5.2c0 .3.1.6.1.9.5 1.6 1.8 2.8 3.6 2.8 2.5 0 4-2 4-5 0-2.6-1.3-4.9-3.9-4.9-1.6 0-3.1 1.1-3.6 2.9-.1.3-.1.6-.1 1v2.3zM99.4 18.4c0 4.8-3.3 6.9-6.5 6.9-3.5 0-6.3-2.6-6.3-6.7 0-4.4 2.9-6.9 6.5-6.9 3.8 0 6.3 2.7 6.3 6.7zm-10.4.1c0 2.9 1.6 5 4 5 2.3 0 4-2.1 4-5.1 0-2.2-1.1-5-3.9-5S89 16 89 18.5zM105.3 8.2V12h3.4v1.8h-3.4v7c0 1.6.5 2.5 1.8 2.5.6 0 1.1-.1 1.4-.2l.1 1.8c-.5.2-1.2.3-2.1.3-1.1 0-2-.4-2.6-1-.7-.7-.9-1.9-.9-3.4v-7.1h-2V12h2V8.8l2.3-.6z"/>
    </g>
  </g>
</svg>
